<svg width="18" height="24" viewBox="0 0 18 24" fill="none" xmlns="http://www.w3.org/2000/svg">
<path d="M9.08588 -0.00854492C4.16625 -0.00854492 0 4.18133 0 9.14483C0 14.3423 4.82887 19.6576 8.07712 23.3933C8.0895 23.4083 8.61452 23.9915 9.26137 23.9915H9.31877C9.96565 23.9915 10.4869 23.4083 10.5 23.3933C13.5484 19.889 18 14.111 18 9.14483C18 4.18133 14.7502 -0.00854492 9.08588 -0.00854492ZM9.38662 22.3872C9.36037 22.4135 9.3221 22.4427 9.28835 22.4671C9.25385 22.4435 9.21635 22.4135 9.18862 22.3872L8.79635 21.9361C5.71687 18.4032 1.5 13.5654 1.5 9.14483C1.5 4.99621 4.974 1.49108 9.08588 1.49108C14.2076 1.49108 16.5 5.33483 16.5 9.14483C16.5 12.5007 14.1064 16.9565 9.38662 22.3872ZM9.02623 4.53308C6.5411 4.53308 4.52623 6.54796 4.52623 9.03308C4.52623 11.5182 6.5411 13.5331 9.02623 13.5331C11.5114 13.5331 13.5262 11.5182 13.5262 9.03308C13.5262 6.54796 11.5114 4.53308 9.02623 4.53308ZM9.02623 12.0331C7.3721 12.0331 5.9917 10.6546 5.9917 9.00008C5.9917 7.34596 7.33758 6.00008 8.9917 6.00008C10.647 6.00008 11.9917 7.34596 11.9917 9.00008C11.9925 10.6546 10.6815 12.0331 9.02623 12.0331V12.0331Z" fill="black"/>
</svg>
