<svg width="36" height="28" viewBox="0 0 36 28" fill="none" xmlns="http://www.w3.org/2000/svg">
<path d="M36 3.28753C34.6749 3.86285 33.2467 4.24092 31.7667 4.42173C33.2811 3.55054 34.4512 2.16977 35.0019 0.509568C33.5736 1.33145 31.9904 1.90677 30.3212 2.23552C28.9618 0.821884 27.0516 0 24.8834 0C20.8394 0 17.5354 3.15603 17.5354 7.05176C17.5354 7.61064 17.6042 8.15309 17.7247 8.66265C11.5985 8.36678 6.1434 5.55593 2.51243 1.29858C1.87572 2.33415 1.51434 3.55054 1.51434 4.83268C1.51434 7.28189 2.80497 9.45166 4.80115 10.6845C3.57935 10.6845 2.44359 10.3557 1.44551 9.8626V9.91192C1.44551 13.331 3.99235 16.1911 7.3652 16.8322C6.28232 17.1152 5.14548 17.1546 4.04398 16.9472C4.51137 18.3485 5.42674 19.5747 6.66141 20.4533C7.89607 21.3319 9.38796 21.8189 10.9273 21.8457C8.31791 23.8189 5.08336 24.8855 1.75526 24.8702C1.17017 24.8702 0.585086 24.8373 0 24.7716C3.2696 26.777 7.1587 27.944 11.3231 27.944C24.8834 27.944 32.3346 17.1938 32.3346 7.87364C32.3346 7.56133 32.3346 7.26545 32.3174 6.95313C33.7629 5.96687 35.0019 4.71761 36 3.28753Z" fill="white"/>
</svg>
