<svg width="16" height="8" viewBox="0 0 16 8" fill="none" xmlns="http://www.w3.org/2000/svg">
<path d="M7.99997 7.84678C7.81108 7.84678 7.62833 7.81865 7.45172 7.7624C7.27416 7.70615 7.12636 7.63115 7.0083 7.5374L0.491634 2.3624C0.231911 2.15615 0.102051 1.89365 0.102051 1.5749C0.102051 1.25615 0.231911 0.993652 0.491634 0.787402C0.751356 0.581152 1.08191 0.478027 1.4833 0.478027C1.88469 0.478027 2.21525 0.581152 2.47497 0.787402L7.99997 5.1749L13.525 0.787402C13.7847 0.581152 14.1152 0.478027 14.5166 0.478027C14.918 0.478027 15.2486 0.581152 15.5083 0.787402C15.768 0.993652 15.8979 1.25615 15.8979 1.5749C15.8979 1.89365 15.768 2.15615 15.5083 2.3624L8.99163 7.5374C8.84997 7.6499 8.6965 7.7294 8.53122 7.7759C8.36594 7.82315 8.18886 7.84678 7.99997 7.84678V7.84678Z" fill="black"/>
</svg>
